<?xml version="1.0" standalone="no"?>
<!DOCTYPE svg PUBLIC "-//W3C//DTD SVG 20010904//EN"
 "http://www.w3.org/TR/2001/REC-SVG-20010904/DTD/svg10.dtd">
<svg version="1.0" xmlns="http://www.w3.org/2000/svg"
 width="1280.000000pt" height="607.000000pt" viewBox="0 0 1280.000000 607.000000"
 preserveAspectRatio="xMidYMid meet">
<metadata>
Created by potrace 1.15, written by Peter Selinger 2001-2017
</metadata>
<g transform="translate(0.000000,607.000000) scale(0.100000,-0.100000)"
fill="currentColor" stroke="none">
<path d="M2094 6056 c-45 -20 -64 -52 -64 -109 0 -59 31 -97 80 -97 42 0 38
-22 -7 -44 -120 -57 -361 -255 -348 -287 3 -9 22 -25 41 -35 19 -10 32 -24 30
-30 -2 -6 -19 -58 -36 -115 -18 -57 -52 -144 -76 -194 -58 -120 -324 -975
-330 -1060 -6 -98 -25 -147 -62 -159 -55 -19 -71 -44 -83 -132 -15 -115 -10
-156 21 -171 26 -12 26 -12 19 -108 -4 -53 -9 -98 -11 -100 -2 -1 -114 -5
-250 -8 l-248 -5 0 30 c0 22 4 29 14 25 15 -6 30 19 20 34 -3 5 -12 9 -20 9
-8 0 -14 10 -14 25 0 16 6 25 15 25 8 0 15 5 15 10 0 6 -30 10 -70 10 -40 0
-70 -4 -70 -10 0 -5 5 -10 10 -10 6 0 10 -13 10 -30 0 -23 -4 -30 -20 -30 -13
0 -20 -7 -20 -20 0 -13 7 -20 20 -20 15 0 20 -7 20 -25 0 -21 -5 -25 -29 -25
-36 0 -50 -19 -27 -36 13 -9 16 -20 11 -48 l-7 -35 -285 -3 -285 -3 -29 -33
c-16 -18 -29 -44 -29 -58 0 -54 45 -103 95 -104 28 -1 57 -37 405 -506 206
-278 379 -514 384 -524 5 -12 0 -34 -18 -70 -31 -61 -33 -106 -6 -140 l19 -25
-34 -35 -33 -35 66 -182 67 -182 108 -57 c111 -57 144 -63 131 -22 -3 13 20
-15 53 -60 219 -304 510 -542 898 -732 458 -225 955 -357 1755 -467 l195 -26
1870 -7 c1029 -4 2908 -8 4177 -9 l2306 -1 6 28 c3 15 33 227 66 472 33 245
66 454 72 465 39 68 41 75 26 113 -13 34 -10 65 31 371 26 184 51 335 56 337
6 1 23 5 38 8 32 8 67 58 67 98 0 16 -12 41 -28 59 l-28 32 -305 30 c-167 16
-304 30 -305 31 0 0 1 20 4 44 3 27 9 42 18 42 8 0 14 9 14 20 0 11 -7 20 -15
20 -21 0 -19 40 3 56 15 11 6 13 -63 13 -69 0 -78 -2 -62 -13 23 -18 22 -52
-3 -59 -12 -3 -20 -14 -20 -26 0 -14 6 -21 20 -21 16 0 20 -7 20 -36 0 -37 0
-37 -37 -31 -21 3 -150 16 -286 28 -198 18 -250 26 -256 39 -5 8 -11 39 -15
67 -6 48 -5 53 13 53 11 0 29 12 40 26 41 53 17 119 -49 133 l-35 7 -37 264
c-155 1102 -238 1701 -248 1793 -16 157 -50 266 -106 338 l-45 59 -122 0 c-68
0 -158 4 -202 10 -44 5 -174 16 -290 25 -115 8 -247 19 -292 25 -168 19 -601
32 -853 26 -518 -13 -821 -52 -902 -116 -74 -57 -169 -645 -263 -1625 -14
-148 -29 -277 -33 -285 -6 -14 -210 9 -1647 187 -902 111 -1659 205 -1681 208
l-41 6 -6 247 c-5 225 -12 298 -75 806 l-69 558 109 252 c107 248 109 252 170
307 l60 56 -168 121 c-146 106 -174 122 -208 122 -30 0 -47 8 -77 34 -21 19
-53 37 -71 40 -41 7 -597 26 -737 26 l-104 0 -41 -42 -41 -43 -355 6 c-195 4
-464 7 -597 8 -240 1 -243 1 -243 22 0 12 11 30 25 41 46 36 21 115 -54 165
-39 26 -45 27 -87 9z m2004 -243 c78 -3 132 -10 132 -16 0 -7 -42 -8 -122 -4
-66 4 -236 7 -377 7 -235 1 -254 2 -236 16 17 14 49 15 245 10 124 -3 285 -9
358 -13z m-1380 -536 c319 -32 322 -33 350 -60 48 -49 43 -68 -153 -571 -99
-253 -190 -472 -202 -487 -43 -50 -80 -56 -447 -69 -328 -11 -341 -10 -365 8
-14 10 -30 35 -35 56 -8 32 -2 60 51 224 34 103 110 335 168 516 92 281 112
334 140 365 18 20 36 34 38 31 10 -10 -46 -128 -58 -123 -8 3 -16 -8 -20 -29
-4 -18 -43 -143 -86 -278 -44 -134 -77 -251 -74 -258 3 -8 -15 -88 -40 -180
-39 -145 -47 -187 -31 -171 2 2 41 135 86 294 44 160 91 317 102 350 19 53
161 386 174 407 8 12 53 9 402 -25z m1510 -174 c59 -28 66 -57 132 -502 54
-370 59 -415 46 -444 -18 -44 -77 -94 -126 -107 -26 -7 -227 -10 -612 -8 -526
3 -576 4 -605 21 -38 20 -63 63 -63 107 0 35 346 826 387 884 56 79 52 78 453
70 287 -5 361 -9 388 -21z m6119 -321 c114 -25 145 -40 154 -74 10 -37 26
-411 44 -998 8 -272 22 -724 30 -1004 9 -280 14 -510 12 -512 -2 -2 -118 8
-258 21 -139 14 -260 25 -266 25 -7 0 -13 7 -13 16 0 14 -318 403 -353 433 -8
6 -208 35 -445 64 -238 30 -434 56 -437 59 -10 10 -6 1335 5 1493 10 155 38
403 46 417 8 12 141 38 276 54 213 24 431 33 783 29 282 -3 343 -6 422 -23z
m-1637 -1257 c0 -384 -2 -700 -3 -702 -3 -2 -570 67 -573 70 -7 9 125 1211
143 1298 l5 29 212 2 c116 2 212 3 214 2 1 -1 2 -315 2 -699z m2377 541 c4 -3
112 -760 110 -763 -5 -5 -529 25 -534 31 -4 3 -10 127 -14 274 -5 147 -10 314
-12 371 l-4 104 226 -7 c124 -4 227 -8 228 -10z m-9776 -267 c-12 -46 -21 -98
-21 -117 0 -23 -4 -32 -12 -29 -15 5 -16 69 -4 160 6 47 12 60 29 66 12 5 24
7 25 6 2 -2 -6 -41 -17 -86z m4699 -794 c134 -20 139 -21 146 -52 5 -18 1 -31
-14 -45 l-20 -20 -148 20 c-113 16 -152 25 -161 38 -18 25 -16 41 7 64 16 16
29 19 53 15 18 -3 79 -12 137 -20z m530 -70 c134 -20 139 -21 146 -52 5 -18 1
-31 -14 -45 l-20 -21 -148 22 c-81 11 -153 26 -161 32 -39 33 6 93 62 84 16
-3 77 -12 135 -20z m4747 -260 c42 -291 43 -265 -17 -265 l-50 0 0 38 c0 33 4
39 30 49 36 14 39 30 5 39 -45 11 -273 0 -287 -14 -10 -10 -10 -15 2 -22 8 -5
24 -10 35 -10 19 0 20 -6 17 -167 -2 -92 -5 -169 -6 -171 -4 -3 -318 27 -322
31 -2 2 -24 609 -24 669 l0 37 83 4 c45 2 176 3 292 3 l210 -1 32 -220z
m-4237 190 c134 -20 139 -21 146 -52 5 -18 1 -31 -14 -45 l-20 -21 -148 22
c-81 11 -153 26 -161 32 -39 33 6 93 62 84 16 -3 77 -12 135 -20z m500 -70
c63 -9 123 -18 132 -21 29 -9 34 -52 10 -76 l-20 -21 -146 21 c-80 11 -153 25
-161 32 -36 30 2 95 49 85 12 -3 73 -12 136 -20z m465 -47 c1 -2 0 -25 -3 -51
l-4 -49 -52 7 c-28 4 -59 9 -68 11 -24 7 -33 46 -18 74 11 21 17 22 77 17 36
-4 67 -8 68 -9z m185 -38 c39 -39 13 -80 -51 -80 l-39 0 0 50 0 50 35 0 c22 0
43 -8 55 -20z m360 -46 c116 -17 150 -31 150 -64 0 -9 -9 -25 -21 -35 -19 -19
-23 -18 -155 2 -74 11 -141 26 -149 33 -34 28 2 98 45 86 8 -3 67 -12 130 -22z
m472 -59 c133 -20 160 -35 140 -80 -7 -14 -18 -28 -26 -31 -21 -8 -275 33
-292 47 -33 27 4 96 46 85 8 -2 68 -12 132 -21z m477 -46 c96 -9 119 -14 134
-31 21 -25 21 -30 -1 -58 l-18 -23 -135 13 c-74 7 -142 17 -151 22 -21 10 -24
58 -6 76 15 15 32 15 177 1z m1833 -308 c4 -3 10 -34 14 -68 l7 -63 -30 0
c-17 0 -51 3 -77 6 l-46 7 0 69 0 70 63 -7 c34 -4 65 -10 69 -14z m-10412
-536 c0 -8 -7 -15 -15 -15 -8 0 -15 7 -15 15 0 8 7 15 15 15 8 0 15 -7 15 -15z
m50 -159 c-13 -13 -35 7 -25 24 5 8 11 8 21 -1 10 -8 12 -15 4 -23z m58 -130
c3 -12 -1 -17 -10 -14 -7 3 -15 13 -16 22 -3 12 1 17 10 14 7 -3 15 -13 16
-22z"/>
</g>
</svg>
