<svg width="100%" height="100%" viewBox="0 0 215 181" fill="none" xmlns="http://www.w3.org/2000/svg">
<path d="M10.1357 81.1322L30.0585 82.069C31.2359 71.8155 34.6077 61.909 39.9607 52.976C45.3136 44.043 52.5313 36.2778 61.1573 30.1715L50.2727 14.059C47.6487 9.56242 49.0093 3.84808 53.8685 1.2251C58.7277 -1.3042 64.4615 0.194647 67.1827 4.69118L76.2208 21.7405C86.0445 17.6683 96.626 15.5681 107.32 15.5681C118.013 15.5681 128.595 17.6683 138.419 21.7405L147.457 4.69118C150.178 0.194647 155.912 -1.3042 160.771 1.2251C165.63 3.84808 166.991 9.56242 164.367 14.059L153.482 30.1715C162.108 36.2778 169.326 44.043 174.679 52.976C180.032 61.909 183.403 71.8155 184.581 82.069L204.504 81.1322C207.081 81.1322 209.553 82.1192 211.376 83.876C213.198 85.6328 214.222 88.0155 214.222 90.5C214.222 92.9845 213.198 95.3672 211.376 97.124C209.553 98.8808 207.081 99.8678 204.504 99.8678L184.581 98.931C183.403 109.185 180.032 119.091 174.679 128.024C169.326 136.957 162.108 144.722 153.482 150.828L164.367 166.941C166.991 171.438 165.63 177.152 160.771 179.775C155.912 182.304 150.178 180.805 147.457 176.309L138.419 159.259C128.595 163.332 118.013 165.432 107.32 165.432C96.626 165.432 86.0445 163.332 76.2208 159.259L67.1827 176.309C64.4615 180.805 58.7277 182.304 53.8685 179.775C49.0093 177.152 47.6487 171.438 50.2727 166.941L61.1573 150.828C52.5313 144.722 45.3136 136.957 39.9607 128.024C34.6077 119.091 31.2359 109.185 30.0585 98.931L10.1357 99.8678C7.55827 99.8678 5.08636 98.8808 3.26381 97.124C1.44126 95.3672 0.417358 92.9845 0.417358 90.5C0.417358 88.0155 1.44126 85.6328 3.26381 83.876C5.08636 82.1192 7.55827 81.1322 10.1357 81.1322ZM78.8448 84.4109C80.1082 78.6966 83.3152 73.638 87.8829 69.7972L71.7503 46.0031C59.563 55.0283 51.5649 68.3264 49.4952 83.0058L78.8448 84.4109ZM107.32 62.3967C110.43 62.3967 113.345 62.8651 116.066 63.7082L129.478 38.5088C122.675 35.7922 115.192 34.2933 107.32 34.2933C99.4478 34.2933 91.9646 35.7922 85.1617 38.5088L98.5731 63.7082C101.294 62.8651 104.21 62.3967 107.32 62.3967ZM135.795 84.4109L165.144 83.0058C163.074 68.3264 155.076 55.0283 142.889 46.0031L126.756 69.7972C131.324 73.638 134.531 78.6966 135.795 84.4109ZM135.795 96.589C134.531 102.303 131.324 107.362 126.756 111.203L142.889 134.997C155.076 125.972 163.074 112.674 165.144 97.9942L135.795 96.589ZM107.32 118.603C104.21 118.603 101.294 118.135 98.4759 117.292L85.1617 142.491C91.9646 145.208 99.4478 146.707 107.32 146.707C115.192 146.707 122.675 145.208 129.478 142.491L116.163 117.292C113.345 118.135 110.43 118.603 107.32 118.603ZM78.8448 96.589L49.4952 97.9942C51.6333 112.983 59.7967 126.191 71.7503 134.997L87.8829 111.203C83.3152 107.362 80.1082 102.303 78.8448 96.589Z" fill="#DCDDE2"/>
</svg>
