<svg width="196" height="176" viewBox="0 0 196 176" fill="none" xmlns="http://www.w3.org/2000/svg">
<path d="M195.505 13.523C194.892 11.0059 193.745 8.61893 192.128 6.49293L192.063 6.39865L191.984 6.29847L191.663 5.82116L191.585 5.7033C190.816 4.46328 189.835 3.33977 188.679 2.37391C186.602 0.715483 183.878 -0.132346 181.107 0.0168161C179.619 0.0524943 178.161 0.398344 176.848 1.02717C175.534 1.65601 174.4 2.55068 173.535 3.64085L173.266 4.0003C170.862 5.16999 169.031 7.10843 168.135 9.43341C166.289 10.5821 164.9 12.2347 164.176 14.1476C162.48 15.2196 161.194 16.739 160.498 18.4964C158.53 19.5587 157.055 21.2272 156.349 23.1929C156.054 23.3688 155.776 23.5659 155.517 23.7822C153.625 22.2833 151.248 21.3704 148.737 21.1776C147.116 19.8829 145.138 19.0038 143.011 18.632C141.815 18.4211 140.592 18.3616 139.378 18.4552C137.88 17.7248 136.236 17.2691 134.541 17.1143C132.846 16.9596 131.133 17.1089 129.503 17.5536C126.329 16.7045 122.912 17.0113 119.987 18.408C118.234 18.1816 116.448 18.302 114.752 18.761C113.057 19.2201 111.493 20.0065 110.17 21.0657C109.123 21.1835 108.102 21.4074 107.107 21.7374C105.052 22.4092 103.245 23.5819 101.871 25.114C101.009 25.3638 100.177 25.6936 99.3907 26.0981C97.3818 27.113 95.7256 28.6104 94.6066 30.4233C93.1364 31.0943 91.8291 32.0218 90.7606 33.1517C89.6921 34.2817 88.8838 35.5917 88.3827 37.0055C87.0499 37.8776 85.9351 38.9918 85.1103 40.276C84.2792 41.5724 83.7556 43.0102 83.5724 44.5011C82.4339 45.5839 81.5557 46.8665 80.9926 48.2687C80.4296 49.671 80.1938 51.1627 80.3 52.6507C78.6986 55.1069 78.1559 58.0074 78.7751 60.8004C78.5055 61.3732 78.2867 61.9643 78.1207 62.5682C77.734 64.1841 77.7721 65.8589 78.2319 67.4592C77.366 67.7814 76.541 68.1864 75.7712 68.6672C73.2499 68.6257 70.7854 69.3432 68.7684 70.7061C66.425 70.8419 64.1801 71.6053 62.322 72.8982C60.8729 72.9574 59.4485 73.257 58.1203 73.7821C57.3786 74.0767 56.6718 74.4283 55.9999 74.8369C55.1142 74.8369 54.2416 74.9311 53.382 75.1197C51.386 75.5435 49.5474 76.4291 48.0482 77.6889C45.2013 78.0661 42.5769 79.28 40.5873 81.148C37.4553 81.8086 34.7295 83.5363 32.9824 85.9682C30.2021 87.1125 27.9637 89.1091 26.6669 91.6017C24.0868 93.1477 22.192 95.4607 21.3134 98.1367C19.6216 99.6352 18.4039 101.513 17.7858 103.576C17.6025 104.143 17.4669 104.722 17.3801 105.308C16.7125 106.102 16.165 106.958 15.7374 107.877C14.862 109.705 14.4893 111.696 14.651 113.682C13.4258 116.169 13.1452 118.95 13.8525 121.596C12.9004 124.641 13.2482 127.897 14.8277 130.724C14.5921 133.64 15.6065 136.528 17.6484 138.797C17.6397 138.914 17.6571 139.034 17.7008 139.156C16.3152 140.226 15.2431 141.585 14.579 143.116C14.0729 143.391 13.5973 143.703 13.1522 144.053C11.6764 145.197 10.5839 146.688 9.99774 148.361C9.21239 148.836 8.49902 149.392 7.85765 150.028C6.86126 151.021 6.09575 152.183 5.6063 153.446C4.90384 153.854 4.26684 154.33 3.69527 154.872C2.36454 156.233 1.43421 157.873 0.989446 159.642C0.544682 161.41 0.599682 163.251 1.14941 164.996C1.85484 168.685 4.11202 171.988 7.45188 174.218C9.7425 175.644 12.5436 176.245 15.3054 175.909C15.9817 175.956 16.658 175.956 17.3343 175.909C18.9704 175.809 20.5738 175.444 22.0726 174.837C24.0398 174.046 25.7285 172.784 26.9548 171.189C27.413 170.588 27.7926 169.953 28.0936 169.286C28.8266 168.846 29.4963 168.337 30.1028 167.759C31.2154 166.71 32.0662 165.467 32.6356 164.112C34.5335 162.863 35.9733 161.13 36.7783 159.138C37.1056 158.942 37.4197 158.726 37.7207 158.49C38.822 159.634 40.2016 160.534 41.7522 161.12C43.3028 161.705 44.9825 161.961 46.6607 161.867C47.7951 162.625 49.0408 163.179 50.3977 163.528C52.2105 163.994 54.1281 164.041 55.9606 163.664C57.4341 164.365 59.0721 164.739 60.7386 164.756C62.4051 164.772 64.0518 164.43 65.5419 163.758C67.0395 164.137 68.6123 164.209 70.1447 163.968C71.6771 163.727 73.1301 163.181 74.3968 162.368C76.0303 162.465 77.6677 162.24 79.1948 161.708C80.7219 161.177 82.1019 160.352 83.2386 159.292C84.8938 159.181 86.4969 158.721 87.9189 157.951C89.341 157.18 90.5422 156.119 91.4259 154.854C93.0035 154.409 94.4465 153.643 95.6435 152.617C96.8406 151.59 97.7599 150.329 98.3305 148.932C99.4212 148.394 100.388 147.716 101.23 146.899C102.591 145.579 103.52 143.953 103.926 142.185C104.598 141.702 105.2 141.156 105.732 140.547C107.125 138.932 107.905 136.957 107.958 134.913C109.941 132.839 110.935 130.146 110.719 127.418C111.544 126.245 112.097 124.934 112.346 123.564C112.594 122.194 112.533 120.793 112.166 119.445C112.532 118.753 112.816 118.038 113.017 117.3C113.305 116.186 113.383 115.037 113.246 113.9L113.324 113.853C115.803 113.95 118.243 113.271 120.229 111.932C122.782 111.988 125.275 111.228 127.264 109.787C130.026 109.875 132.725 109.035 134.836 107.43C137.499 107.29 140.006 106.258 141.865 104.536C143.31 104.457 144.719 104.101 145.998 103.491C147.277 102.881 148.396 102.032 149.28 101.001C151.276 100.623 153.096 99.716 154.516 98.4019C155 97.9462 155.437 97.4571 155.825 96.9346C157.413 96.6045 158.884 95.9236 160.107 94.9535C161.329 93.9834 162.264 92.7545 162.828 91.3778C164.052 90.8317 165.135 90.0618 166.01 89.1171C166.884 88.1724 167.53 87.0739 167.906 85.8916C169.758 84.9134 171.211 83.4285 172.056 81.6489C172.566 80.5764 172.854 79.4273 172.906 78.2605C173.958 77.2214 174.746 75.9881 175.214 74.6466C175.682 73.3052 175.819 71.888 175.616 70.4939C176.45 69.3666 176.99 68.0835 177.194 66.7413C177.398 65.3991 177.261 64.0327 176.794 62.745C177.363 61.5664 177.658 60.2877 177.651 58.9972C177.643 57.4156 177.193 55.8613 176.342 54.4775C176.734 53.1355 176.769 51.7295 176.445 50.373C176.121 49.0166 175.447 47.7479 174.477 46.6696C174.571 45.7772 174.514 44.8771 174.307 44.0002C176.092 42.8754 177.527 41.358 178.476 39.5924C180.57 38.3667 182.193 36.5753 183.096 34.4775C184.857 33.2088 186.244 31.5696 187.134 29.7044C189.268 28.2902 190.812 26.2748 191.526 23.9767C192.872 22.9453 193.944 21.6543 194.661 20.1994C195.682 18.1016 195.976 15.774 195.505 13.523ZM174.791 10.5236C174.516 10.9245 174.319 11.365 174.209 11.8259V11.6903C174.347 11.2788 174.548 10.8862 174.804 10.5236H174.791ZM159.523 36.0273H159.647C159.538 36.0352 159.427 36.0234 159.313 35.992C159.291 35.1455 159.053 34.315 158.619 33.5642C158.184 32.8134 157.564 32.1622 156.807 31.6608L157.003 31.596C157.385 31.4919 157.788 31.4678 158.181 31.5253C158.832 31.648 159.438 31.9177 159.942 32.309C161.78 33.4068 163.235 34.9521 164.136 36.7652C165.038 38.5783 165.349 40.5845 165.033 42.5506C164.778 42.4799 164.542 42.3679 164.294 42.3031C164.045 42.2383 163.901 42.2559 164.091 42.2677C160.648 42.034 157.189 42.466 153.947 43.5347C152.396 44.1004 150.74 44.3596 149.064 44.3184H149.032C149.539 45.9184 150.711 47.2814 152.304 48.1251V48.1605L152.566 48.2135C154.83 48.6613 157.16 48.7851 159.47 48.5788C161.931 48.2488 164.444 48.296 166.885 48.7321C167.219 48.8558 167.141 48.7792 166.885 48.6731L167.54 48.956C168.24 49.2877 168.867 49.7309 169.392 50.2642C169.685 50.5549 169.911 50.8954 170.056 51.2658C170.201 51.6362 170.262 52.0289 170.236 52.4209C170.056 53.5533 169.445 54.5944 168.508 55.3673L168.842 55.5382C166.946 55.0024 164.972 54.7205 162.985 54.7014C162.241 54.6749 161.498 54.6199 160.76 54.5364C158.381 54.3951 156.095 53.6538 154.163 52.3973C153.979 53.1485 153.979 53.9267 154.163 54.6778C153.77 55.0314 153.334 55.3339 152.854 55.5853C152.34 55.8708 151.785 56.0909 151.204 56.2394L150.897 56.2983C151.665 54.0359 151.679 51.6201 150.936 49.3508C150.627 48.0419 149.991 46.8134 149.077 45.7579C148.163 44.7024 146.995 43.8475 145.661 43.2577H145.759C145.759 42.9081 145.783 42.5624 145.831 42.2206C145.637 41.8738 145.481 41.5106 145.367 41.1363H145.419C147.382 39.8713 149.433 38.7399 151.571 37.7421C153.966 36.4634 156.735 35.8564 159.516 36.0037L159.523 36.0273ZM136.78 50.2583C136.812 49.6463 136.977 49.0458 137.264 48.4904C137.51 48.0355 137.871 47.6386 138.317 47.3316C138.764 47.0247 139.284 46.8161 139.836 46.7226C140.328 46.6335 140.832 46.6176 141.329 46.6755V46.646C148.488 50.052 146.564 58.7143 145.786 60.1993H145.74C145.272 61.1777 144.532 62.0308 143.59 62.6761C142.649 63.3213 141.539 63.7367 140.367 63.8823C141.296 61.7786 141.61 59.4981 141.302 57.2529C141.119 55.8708 140.623 54.5372 139.845 53.3342C139.067 52.1312 138.024 51.0844 136.78 50.2583ZM141.361 46.6224C141.361 46.6224 141.374 45.2966 141.361 46.6283V46.6224ZM145.792 27.1352V27.0704V27.1057L146.447 27.0232C147.469 26.8512 148.525 26.935 149.499 27.2654C150.473 27.5957 151.328 28.1601 151.97 28.8971C152.446 29.4785 152.819 30.1071 153.089 30.7828H153.312H153.03C150.768 31.0005 148.615 31.773 146.806 33.0161C145.628 33.8333 144.555 34.7525 143.587 35.7739C142.627 36.7875 141.56 37.7028 140.386 38.5199C140.133 38.5828 139.876 38.6339 139.614 38.6732C138.799 38.9147 137.916 38.8846 137.124 38.5882C136.332 38.2917 135.685 37.7488 135.301 37.0585L135.177 37.1057L134.928 37.2C134.712 37.2766 134.503 37.3119 134.274 37.3709C134.579 37.3001 134.876 37.2118 135.164 37.1057C135.404 36.7521 135.689 36.2827 136.021 35.6973C136.518 34.8193 136.728 34.4657 137.238 33.6408C138.037 32.0575 139.216 30.6531 140.689 29.5283C142.162 28.4035 143.894 27.5863 145.759 27.1352H145.792ZM124.064 37.0703C123.763 34.6738 124.087 32.247 125.011 29.9831C125.934 27.7192 127.432 25.6807 129.385 24.0297L129.522 23.9295C130.758 23.1344 132.276 22.7788 133.785 22.9311C135.294 23.0834 136.687 23.7329 137.696 24.7545L138.246 24.5836L137.644 24.8311C135.519 26.0289 133.72 27.6407 132.379 29.5478C131.038 31.455 130.189 33.6088 129.895 35.8505L129.666 36.6637C129.817 36.7757 129.974 36.8346 130.124 36.9289C129.974 36.8346 129.81 36.7875 129.66 36.6755L129.581 36.6284C128.827 37.2121 127.89 37.5695 126.9 37.6509C125.91 37.7322 124.916 37.5334 124.057 37.0821L124.064 37.0703ZM113.305 26.9643C113.444 26.7286 113.566 26.5105 113.671 26.3102C114.532 25.2576 115.786 24.5204 117.203 24.2346C118.619 23.9487 120.103 24.1334 121.381 24.7545V24.8311C120.323 25.6905 119.493 26.7534 118.954 27.9408C118.415 29.1282 118.179 30.4097 118.265 31.6903C118.326 32.8649 118.398 33.9177 118.481 34.8488C118.625 36.0784 118.673 37.31 118.625 38.5435C118.253 39.3507 117.576 40.0138 116.714 40.4158C115.852 40.8179 114.86 40.9332 113.913 40.7415C113.659 39.8591 113.38 38.9828 113.076 38.1133C112.176 36.3576 111.731 34.441 111.773 32.5079C111.814 30.5747 112.343 28.6753 113.318 26.9525L113.305 26.9643ZM99.7834 34.7073C100.166 33.4532 100.999 32.3483 102.152 31.5649C103.305 30.7815 104.713 30.3635 106.158 30.3762V30.2937C105.643 31.4129 105.388 32.6155 105.411 33.8268C105.433 35.0382 105.732 36.2325 106.289 37.3355C106.812 38.5612 107.414 39.7555 108.095 40.9183C108.706 41.8768 109.155 42.8943 109.443 43.9707V43.8764V44.0002V43.9707C109.388 44.8895 109 45.7668 108.34 46.4689C107.679 47.171 106.782 47.6595 105.785 47.8599L105.588 47.8894V47.8364C105.171 46.9867 104.625 46.1934 103.965 45.4793C101.113 42.7136 99.5762 39.0521 99.6852 35.2789L99.7703 34.6484L99.7834 34.7073ZM103.776 90.2817C103.723 90.9508 103.48 91.5963 103.069 92.1556V92.191C100.473 90.0663 97.106 88.8677 93.5987 88.8203C91.844 88.7526 90.1072 88.4731 88.435 87.9894L88.1405 87.8657C87.9019 87.74 87.682 87.5875 87.486 87.412L87.4468 87.3825C87.2248 87.1738 87.0473 86.9301 86.9232 86.6636L86.8643 86.587C85.863 86.8404 85.9153 86.8227 86.8905 86.5811C90.1628 84.7425 90.2871 80.8475 90.3853 77.0231C90.3199 74.9665 90.5816 72.9099 91.1641 70.9241H91.223V70.8416C91.955 69.9797 92.9781 69.3551 94.1383 69.0618C95.2985 68.7685 96.5331 68.8223 97.6564 69.2152H97.6956C97.3807 71.1327 97.317 73.0769 97.5059 75.0078C97.8141 77.6481 97.2543 80.3119 95.8959 82.6683C95.6152 83.0225 95.2509 83.3163 94.8291 83.5286C97.3815 83.5286 99.8554 84.336 101.819 85.8091L101.982 85.9329L102.061 86.0095C102.209 86.1509 102.349 86.2923 102.48 86.4338L102.8 86.8286C103.615 87.8204 103.965 89.0601 103.776 90.2817ZM79.9205 116.569H79.8223C79.2854 117.372 78.5118 118.025 77.5876 118.456C76.6633 118.886 75.6245 119.078 74.5866 119.009C75.8301 116.316 75.889 113.293 74.7371 110.559C74.2226 108.921 73.9066 107.237 73.7947 105.538H73.8601C74.0548 104.739 74.4663 103.996 75.0578 103.375C75.4908 102.909 76.0585 102.559 76.6983 102.364C77.3381 102.17 78.0251 102.139 78.6835 102.273C79.2944 102.391 79.8703 102.588 80.4113 102.863C80.516 103.9 80.7909 106.563 81.0658 108.938C81.6613 111.513 81.2621 114.2 79.9466 116.546L79.9205 116.569ZM47.806 139.663L47.7471 139.722C47.3303 140.186 46.8121 140.569 46.2244 140.845C45.6368 141.122 44.9922 141.287 44.3308 141.33C44.487 138.587 43.6436 135.872 41.9289 133.599C40.8833 131.948 40.0175 130.209 39.3438 128.408H39.4158V127.966C39.4418 127.294 39.627 126.635 39.959 126.033L40.0572 125.868C40.4999 125.148 41.1884 124.576 42.0206 124.236C42.3053 124.122 42.6041 124.039 42.9106 123.988H43.0546C43.6122 123.903 44.1837 123.927 44.73 124.059C45.1751 125.791 45.8797 127.433 46.844 128.985C48.5783 131.395 49.4029 134.242 49.2 137.105L49.0888 137.141C48.8902 138.061 48.4504 138.926 47.806 139.663ZM53.958 132.827V132.55C54.1373 129.833 53.5093 127.122 52.1385 124.695C51.0928 123.201 50.3814 121.538 50.0443 119.798C50.0617 119.201 50.1883 118.624 50.4239 118.066C50.6771 117.415 51.136 116.846 51.7441 116.427C52.3522 116.008 53.0831 115.759 53.8467 115.709C54.4844 115.667 55.1254 115.719 55.7446 115.862C55.9213 117.524 56.4645 119.138 57.3415 120.612C57.4942 120.902 57.6426 121.207 57.7866 121.525C58.9744 123.904 59.3743 126.542 58.9384 129.121H58.9188C57.9633 130.918 56.8441 132.757 53.958 132.827ZM64.0301 125.55C64.8624 122.768 64.5341 119.808 63.1073 117.229C62.178 115.656 61.5874 113.938 61.3665 112.167H61.4254C61.441 111.068 61.8938 110.01 62.7016 109.186C63.059 108.866 63.4894 108.62 63.963 108.466C64.4366 108.311 64.9419 108.251 65.4438 108.29C66.12 108.325 66.7745 108.449 67.4072 108.661C67.6384 110.068 67.9962 111.443 68.4805 112.786C69.8156 115.715 70.1035 118.95 69.292 122.032H69.2396C68.6441 123.452 66.1898 125.797 64.0563 125.503L64.0301 125.55ZM94.4233 40.7651C94.5673 42.8393 95.5294 44.7957 97.1328 46.2866L98.6708 47.7421C100.307 49.0797 101.721 50.6295 102.859 52.3384L102.938 52.4798C102.938 52.4032 102.938 52.2913 102.886 52.2264C102.886 52.3207 102.938 52.4209 102.964 52.5388V52.4798C103.275 53.3185 103.248 54.2287 102.889 55.0516C102.531 55.8744 101.862 56.5577 101.001 56.9819V57.029L100.909 56.923C100.091 56.3337 97.8854 54.778 95.5948 53.2164C93.0424 51.8375 91.1249 49.6808 90.1759 47.1469C89.9805 46.4766 89.9358 45.7778 90.0444 45.0917C90.1531 44.4056 90.4129 43.7459 90.8085 43.1514C91.2042 42.5569 91.7277 42.0396 92.3485 41.6298C92.9692 41.22 93.6747 40.926 94.4233 40.7651ZM87.5057 54.1887L87.5449 54.2535C88.4285 55.6973 89.7178 56.9053 91.2819 57.7479C91.9822 58.1074 92.8854 58.5081 93.8474 58.9265C96.0867 59.7163 98.1388 60.8822 99.8946 62.3619C99.9557 62.4523 100.026 62.5368 100.104 62.6153C100.852 63.7431 101.13 65.0735 100.889 66.369C100.093 66.527 99.3664 66.894 98.8017 67.4238C97.0271 66.6492 95.2146 65.9473 93.3697 65.3201C92.5516 65.0372 91.7531 64.7308 90.994 64.4833C89.0606 63.9736 87.3908 62.8627 86.2818 61.3484V61.3071C85.9582 61.0589 85.7066 60.7434 85.5488 60.3879C85.0737 59.3045 85.0078 58.1104 85.3615 56.99C85.7152 55.8696 86.4687 54.8851 87.5057 54.1887ZM85.8303 68.2783L85.9088 68.3136C87.2766 69.3743 88.867 70.1816 90.5882 70.6707C89.5613 70.3253 88.4338 70.3084 87.3947 70.6228C86.3556 70.9371 85.4682 71.5637 84.8813 72.3973V72.3619C84.7085 71.6596 84.7038 70.9322 84.8674 70.2281C85.031 69.524 85.3592 68.8593 85.8303 68.2783ZM79.8485 73.2989C80.9041 72.7127 82.1564 72.483 83.3826 72.6507C83.8002 72.7177 84.2055 72.8367 84.5868 73.0042C83.9499 75.1943 83.6136 77.4464 83.5854 79.7102C83.8276 82.0437 83.4284 84.4008 82.4336 86.5693H82.3943C82.0169 87.2598 81.4574 87.8567 80.7647 88.3077C80.1515 88.7014 79.4387 88.9507 78.6912 89.0331C77.9436 89.1154 77.185 89.0281 76.4845 88.7791C76.261 88.6996 76.0425 88.6091 75.8301 88.508C76.7582 85.8654 77.0483 83.0747 76.6809 80.323V80.2464C76.5234 78.4283 76.9943 76.6108 78.0291 75.0431V75.0078C78.4588 74.3075 79.0864 73.722 79.8485 73.3106V73.2989ZM71.2357 77.0349L71.3012 76.9524V77.0113C69.9726 79.3743 69.4687 82.0437 69.8679 84.6718C70.0185 86.6636 69.8417 88.6671 69.3378 90.6117H69.292C69.0198 91.0982 68.674 91.5484 68.2645 91.9494C67.676 92.5387 66.8935 92.9429 66.0315 93.103C65.1695 93.2631 64.2733 93.1707 63.4738 92.8392C63.2869 92.7717 63.1072 92.6889 62.9372 92.5917C63.4607 90.3112 63.4607 87.96 62.9372 85.6795C62.5271 83.4255 63.0637 81.1147 64.4424 79.1975C64.4817 79.1936 64.521 79.2034 64.5602 79.2269C65.0314 78.5552 67.9373 75.4261 71.2357 77.0054V77.0349ZM58.068 81.0891C56.3508 84.1359 55.8141 87.6122 56.5431 90.9653C56.801 92.2877 56.9106 93.6301 56.8703 94.9723C56.6139 95.6364 56.1957 96.2404 55.6465 96.7402C55.3073 97.0456 54.9026 97.2857 54.457 97.4457C54.0114 97.6058 53.5344 97.6825 53.0548 97.6712C52.5023 97.6718 51.956 97.5673 51.4514 97.3648C50.7145 95.3426 50.1135 93.2823 49.6516 91.1951C49.307 89.8998 49.2617 88.5547 49.5183 87.243C49.775 85.9313 50.3283 84.6811 51.1438 83.5699H51.2223C51.7935 82.4494 52.8167 81.5664 54.0844 81.1002C55.3521 80.634 56.7692 80.6195 58.0483 81.0596L58.068 81.0891ZM44.1083 86.7814C43.0612 89.3035 42.9172 92.0495 43.696 94.6482C44.3701 96.746 45.3976 98.7378 46.7654 100.541H46.6672C46.656 101.159 46.4905 101.768 46.1829 102.321C45.7975 103.005 45.1551 103.543 44.3701 103.841C43.8219 104.064 43.224 104.171 42.6227 104.153C40.3326 102.695 38.6136 100.623 37.7119 98.2314C36.8102 95.8402 36.7721 93.2534 37.6029 90.8415H37.688C38.0232 89.5771 38.857 88.4654 40.0344 87.7132C41.2117 86.9609 42.6525 86.6193 44.0887 86.752L44.1083 86.7814ZM31.9811 95.8503C31.6397 98.3252 32.1658 100.834 33.4859 103.027C34.806 105.219 36.8541 106.985 39.3438 108.078H39.4093C39.6399 108.85 39.6399 109.663 39.4093 110.435V110.529C39.2235 111.026 38.8939 111.469 38.4545 111.813C38.015 112.157 37.4816 112.389 36.9092 112.486C36.9092 112.486 36.9092 112.562 36.9616 112.592C34.1656 112.044 31.6663 110.642 29.8877 108.624C28.1091 106.605 27.1608 104.095 27.2035 101.519H27.1577L27.2166 101.484C27.2568 100.215 27.7337 98.9885 28.5813 97.9741C29.4289 96.9597 30.6054 96.2073 31.9484 95.8209L31.9811 95.8503ZM23.7349 107.948C24.3566 110.423 25.8292 112.656 27.9431 114.324C30.0635 115.998 35.5152 117.247 35.5152 117.247C35.5152 117.247 36.0911 117.913 36.2548 118.308C36.4307 118.731 36.5025 119.183 36.4652 119.634C36.4279 120.085 36.2824 120.523 36.0388 120.918C35.8113 121.314 35.4868 121.659 35.0898 121.926L35.0113 121.973L35.0505 122.008C32.2226 122.284 29.3714 121.731 26.9202 120.432C24.469 119.132 22.5486 117.156 21.4443 114.795L21.4835 114.742C21.0184 113.542 20.9836 112.241 21.3841 111.022C21.7845 109.803 22.5999 108.728 23.7153 107.948H23.7349ZM20.8814 122.044C22.4274 124.151 24.6908 125.749 27.3319 126.599C29.973 127.449 32.8492 127.505 35.5283 126.758C36.2417 127.064 36.8176 127.583 37.1514 128.225L37.1972 128.331L37.2365 128.431H37.3477L37.4851 128.396H37.5833C35.1291 128.885 34.4419 131.955 34.4419 131.955C34.4419 131.955 29.9588 132.609 27.7468 132.155C25.5325 131.704 23.4869 130.741 21.8108 129.362C20.7475 128.425 20.0734 127.188 19.9007 125.857C19.728 124.526 20.0672 123.182 20.8618 122.049L20.8814 122.044ZM20.2728 147.536C19.0293 147.594 19.3565 147.536 20.2793 147.559L20.2728 147.536ZM21.5555 167.83C20.808 168.692 19.8014 169.343 18.6553 169.706C17.5091 170.068 16.2716 170.127 15.0895 169.875C14.3695 170.122 15.0829 169.857 15.0829 169.857C15.0829 169.857 16.8238 166.634 14.4284 163.411C13.106 161.697 12.1433 159.78 11.5881 157.754C11.3612 156.842 11.4651 155.89 11.8846 155.036C12.304 154.182 13.0167 153.472 13.918 153.01C17.2165 151.307 17.3735 156.339 18.9508 158.278C20.7178 160.181 21.9286 162.45 22.4718 164.884H22.3867C22.469 165.924 22.1801 166.96 21.5621 167.842L21.5555 167.83ZM31.006 155.284C31.0527 156.287 30.732 157.275 30.0934 158.097C29.4548 158.919 28.5336 159.529 27.4719 159.834C26.7651 159.981 24.1276 153.911 23.0412 152.798C21.5713 151.325 20.6034 149.502 20.2532 147.547C20.2094 147.155 20.2094 146.761 20.2532 146.369C20.3812 145.343 20.9143 144.394 21.7553 143.693C22.5963 142.992 23.6891 142.586 24.8344 142.55C25.1682 144.589 26.176 146.493 27.7271 148.007C29.7101 149.904 30.8685 152.379 30.9994 154.984L31.006 155.284ZM35.3647 150.523C35.1225 151.513 35.3712 150.505 35.3712 150.505H35.4301C35.3039 147.698 34.1538 145.005 32.1578 142.845C31.0262 141.318 30.1074 139.671 29.4222 137.942V137.907C25.4823 137.424 25.2533 140.441 25.2533 140.441C25.2533 140.441 24.9457 140.111 24.8148 139.928C24.166 138.983 23.9545 137.847 24.2257 136.764C24.2257 136.687 24.2716 136.616 24.2977 136.546L24.3959 136.587C25.9862 137.27 27.7206 137.636 29.4811 137.653C29.3709 137.04 29.4162 136.411 29.6136 135.816C29.8111 135.22 30.1556 134.672 30.6213 134.213C31.0871 133.754 31.662 133.396 32.3032 133.165C32.9444 132.934 33.6353 132.837 34.3241 132.88V132.933C34.8851 135.164 35.9548 137.265 37.4655 139.103C38.8709 141.118 39.7358 143.4 39.9917 145.768H39.9394C39.8814 146.134 39.7961 146.496 39.6841 146.852C40.9697 146.104 42.1885 145.266 43.3295 144.348C44.6342 143.145 46.2724 142.278 48.0743 141.837H48.3361C48.9634 141.788 49.5953 141.83 50.2079 141.961C50.7615 142.091 51.2877 142.302 51.7655 142.586C52.2595 142.885 52.6713 143.282 52.9697 143.746H53.0155C51.2877 144.339 49.831 145.437 48.8793 146.864C48.3994 147.433 47.8867 147.983 47.3413 148.514C46.8898 148.926 46.5167 149.333 46.1633 149.692C45.0311 151.136 43.6764 152.332 41.4708 152.639C38.9511 152.992 35.8294 151.643 35.3909 150.505L35.3647 150.523ZM41.4512 152.609C41.5428 152.88 41.5624 152.963 41.4512 152.609V152.609ZM53.6831 158.06C52.812 158.089 51.9485 157.905 51.1836 157.528C50.4188 157.152 49.781 156.597 49.3375 155.921C49.248 155.755 49.1672 155.586 49.0953 155.414H49.0429L49.1215 155.361C50.9862 153.932 52.4864 152.157 53.5195 150.158L53.9121 149.409C54.9593 147.388 56.0653 145.243 58.225 144.589H58.2578C60.0706 143.97 62.6492 143.593 63.5851 144.719C61.9489 145.968 60.8494 147.701 60.5091 149.61C60.2997 150.258 60.0575 150.936 59.7827 151.643C59.5209 152.232 59.318 152.786 59.1282 153.24C58.7566 154.511 58.062 155.687 57.0994 156.675V156.64C56.1913 157.469 54.9744 157.967 53.6831 158.036V158.06ZM69.1742 158.142C68.5368 158.265 67.8755 158.243 67.2501 158.078C66.3428 157.821 65.5526 157.306 64.9987 156.61C66.0982 154.736 66.5956 152.621 66.432 150.505C66.3116 148.01 67.2312 145.563 69.0106 143.646C69.6056 143.032 70.3566 142.555 71.1997 142.258C72.0428 141.96 72.9532 141.85 73.8536 141.937C72.7548 144.165 72.4 146.632 72.8326 149.038V149.268L72.957 150.282C73.3235 151.961 73.2188 153.693 72.6559 155.326V155.396C72.3316 156.057 71.8525 156.646 71.2515 157.124C70.6506 157.602 69.9419 157.958 69.1742 158.166V158.142ZM85.3132 152.391C84.6499 152.987 83.7782 153.357 82.8459 153.44C81.8394 153.516 80.8315 153.31 79.9597 152.851C80.0649 150.866 79.7564 148.882 79.05 146.999L78.7817 146.086C78.016 144.028 77.8648 141.825 78.3432 139.698H78.4021C78.696 138.886 79.2082 138.151 79.8933 137.56C80.5784 136.969 81.415 136.54 82.3289 136.31C82.1391 138.526 82.8328 140.729 84.2923 142.527C84.6653 143.057 87.1654 146.451 86.7203 149.144C86.4978 150.488 86.2295 151.501 85.3132 152.379V152.391ZM93.422 144.342C93.1358 144.378 92.8472 144.398 92.5581 144.401C92.5668 144.585 92.5494 144.585 92.5058 144.401C91.8077 142.074 90.5522 139.914 88.8277 138.072C87.3265 136.552 86.2436 134.735 85.6666 132.768L85.6077 132.562H85.6601C85.5189 132.183 85.4874 131.777 85.5685 131.384C85.635 130.808 85.8298 130.25 86.1413 129.744C86.4528 129.238 86.8746 128.793 87.3813 128.437C87.688 128.248 88.0361 128.119 88.4023 128.06C89.2488 129.668 90.454 131.103 91.9429 132.273C94.3186 133.923 96.2231 136.068 97.4993 138.52H97.4404C97.5495 138.912 97.6171 139.305 97.6433 139.698C97.7461 140.817 97.3596 141.927 96.566 142.792C95.7725 143.657 94.6349 144.209 93.3958 144.33L93.422 144.342ZM101.923 131.873C101.613 132.035 101.275 132.151 100.922 132.214V132.297V132.262C99.5377 130.23 97.6265 128.532 95.3527 127.312C93.1789 126.248 91.3464 124.697 90.0319 122.81L89.9926 122.757L89.9403 122.692C89.4972 121.862 89.3334 120.934 89.4691 120.022C89.5989 119.088 90.124 118.236 90.9351 117.642L91.2034 117.471C91.3539 117.989 92.4534 119.298 95.7192 120.523C97.1917 121.006 101.642 122.621 103.389 125.567C103.586 125.892 103.717 126.121 103.835 126.41C104.285 127.38 104.337 128.463 103.981 129.464C103.624 130.465 102.883 131.319 101.891 131.873H101.923ZM107.46 95.6677C106.863 97.3822 106.593 99.1754 106.662 100.971C106.662 102.66 106.459 104.332 106.053 105.986C105.759 105.541 105.385 105.143 104.947 104.807L104.842 104.772C104.323 104.566 103.825 104.318 103.357 104.029C101.601 102.95 99.5789 102.273 97.4666 102.055C95.0791 101.77 92.7469 101.189 90.5358 100.329C90.1463 100.757 89.8565 101.252 89.6837 101.783C89.511 102.314 89.4587 102.872 89.5302 103.421C89.6016 103.971 89.7953 104.503 90.0996 104.984C90.4039 105.465 90.8127 105.886 91.3016 106.222C93.1537 107.253 95.2087 107.972 97.3488 108.331C100.268 108.785 103.049 109.333 105.255 111.678C105.634 112.079 105.883 112.379 106.138 112.768L106.217 112.892C106.701 113.658 106.904 114.542 106.799 115.426C106.595 116.668 105.88 117.795 104.797 118.585C102.852 116.894 100.48 115.655 97.8854 114.972C95.4337 114.586 93.1901 113.487 91.4979 111.843C91.4527 111.797 91.3997 111.757 91.3408 111.725L91.4586 111.837C90.9809 112.25 90.3788 113.387 90.3788 113.387C90.3788 113.387 89.3774 113.876 88.8408 114.041C87.7544 114.371 85.4638 114.312 85.4638 114.312C85.4638 114.312 87.4599 109.734 87.2308 107.542C87.2395 107.318 87.2221 107.011 87.1784 106.622C86.9625 104.583 86.2229 101.048 88.0031 99.5215C88.2395 99.3305 88.491 99.1552 88.7557 98.9971L88.8801 98.9322L88.8146 98.838L88.723 98.6494C88.3807 98.0481 88.2076 97.3804 88.219 96.7048C88.2283 96.1612 88.3621 95.6252 88.6121 95.1304C88.8621 94.6356 89.2229 94.1926 89.672 93.8291H89.7178C91.5852 94.5677 93.5267 95.0843 95.5425 95.3789C98.5566 95.7691 101.44 96.7465 103.992 98.2428C104.392 97.5709 104.626 96.8292 104.679 96.0684C104.711 95.5145 104.6 94.7248 104.6 94.7248C104.6 94.7248 106.007 94.9546 106.655 95.2316C106.917 95.3495 107.172 95.487 107.421 95.6441L107.486 95.5439L107.46 95.6677ZM108.206 79.3212C107.458 79.9555 106.533 80.3955 105.529 80.5947C104.526 80.7939 103.481 80.7448 102.506 80.4526C104.142 77.3118 104.692 73.7938 104.07 70.3643C103.973 69.2371 103.936 68.1063 103.959 66.976V66.9229C104.075 66.2911 104.394 65.7034 104.875 65.2317C105.542 64.5765 106.447 64.1583 107.427 64.0532C107.927 63.989 108.436 64.0319 108.914 64.1783C109.391 64.3247 109.824 64.5706 110.176 64.8958C110.261 65.8446 110.379 66.5811 110.51 67.3295C110.715 68.4766 110.853 69.6277 110.922 70.7827C111.095 73.3684 110.522 75.9505 109.26 78.2782H109.208C108.902 78.6632 108.555 79.0109 108.167 79.3212H108.206ZM120.425 91.9906C119.594 93.97 119.324 96.1046 119.64 98.2016C120.136 100.71 119.614 103.295 118.167 105.485L118.036 105.656L118.115 105.579L117.932 105.797L118.036 105.656C117.5 106.521 116.656 107.199 115.64 107.581C114.624 107.962 113.495 108.025 112.434 107.76C112.01 107.66 111.597 107.521 111.204 107.347V107.3C112.349 105.497 113.004 103.481 113.108 101.407C113.222 100.488 113.278 99.5647 113.278 98.6376C113.201 96.991 113.459 95.3455 114.038 93.782V93.7349L114.083 93.7643C114.34 93.1412 114.787 92.5959 115.373 92.191C115.935 91.8312 116.576 91.5823 117.252 91.4604C117.929 91.3386 118.626 91.3466 119.299 91.4838C119.719 91.5547 120.119 91.6988 120.477 91.9081L120.425 91.9906ZM121.773 73.8056L121.642 73.9588C120.983 74.7491 120.082 75.3487 119.05 75.6837C118.017 76.0188 116.898 76.0747 115.831 75.8445C116.859 73.7003 117.405 71.3939 117.438 69.0585C117.47 66.7231 116.989 64.405 116.021 62.2382H116.06C116.135 61.5723 116.422 60.9401 116.886 60.4174C117.351 59.8948 117.973 59.504 118.678 59.2918H118.776C123.946 57.9895 123.737 63.2989 123.802 66.3631C123.852 68.7484 123.283 71.1113 122.14 73.2635H122.101C121.989 73.45 121.867 73.631 121.734 73.8056H121.773ZM131.996 93.5993L132.133 94.2947C132.67 96.5516 132.605 98.891 131.944 101.113L131.878 101.307L131.944 101.16C131.944 101.248 131.878 101.342 131.839 101.437L131.878 101.307C131.843 101.405 131.802 101.507 131.754 101.613C131.099 102.939 129.136 104.66 125.078 103.511C126.008 102.091 126.283 100.4 125.864 98.7967L125.733 97.6771C125.216 95.0182 125.459 92.2846 126.44 89.7337V89.6983H126.505C127.057 88.7411 127.962 87.9863 129.063 87.5629C130.165 87.1394 131.396 87.0736 132.546 87.3766C131.99 88.3255 131.652 89.3653 131.55 90.4342C131.449 91.5031 131.587 92.5794 131.957 93.5993H131.996ZM128.436 70.4586C129.554 68.2214 130.021 65.7646 129.792 63.32C129.562 60.8755 128.645 58.5238 127.127 56.4869C127.062 55.9825 127.15 55.4717 127.38 55.0083C127.61 54.5448 127.975 54.1457 128.436 53.8528C128.969 53.5515 129.57 53.3621 130.196 53.2989C130.821 53.2356 131.454 53.3001 132.048 53.4875C133.908 55.311 135.139 57.5812 135.593 60.0226C136.048 62.464 135.705 64.9716 134.607 67.2411H134.555C133.996 68.2652 133.113 69.1173 132.017 69.69C130.921 70.2626 129.661 70.53 128.396 70.4586H128.436ZM145.053 95.0902C145.034 95.7642 144.831 96.4238 144.464 97.0112C144.075 97.6379 143.475 98.1362 142.749 98.4331C142.024 98.73 141.212 98.8099 140.432 98.6612C139.828 98.5869 139.234 98.4586 138.658 98.2782H138.626H138.665C138.959 96.9759 138.907 96.4632 138.011 92.0495C137.114 87.6359 137.114 86.4691 138.011 84.6247C138.251 83.7545 138.808 82.9819 139.594 82.4307C140.379 81.8794 141.347 81.5813 142.343 81.584L142.86 81.643C142.14 83.9294 142.31 86.3689 143.344 88.5551C144.411 90.5999 144.981 92.8156 145.033 95.0725V95.1197L145.007 95.0666L145.053 95.0902ZM156.407 89.9694C156.14 90.3125 155.8 90.6047 155.407 90.8292C155.014 91.0537 154.576 91.2061 154.117 91.2776C153.163 91.3596 152.207 91.4146 151.25 91.4426C151.25 91.4426 150.367 88.0955 149.457 86.8109C148.999 86.0095 148.475 85.0961 147.906 83.9942C146.852 82.2001 146.502 80.1384 146.911 78.1427C146.911 77.8873 146.944 77.6339 147.009 77.3825C147.215 76.6741 147.627 76.0278 148.202 75.51C148.777 74.9922 149.495 74.6215 150.282 74.4362C150.373 76.5458 151.119 78.5846 152.435 80.3289C152.886 80.9889 153.541 81.7549 154.222 82.5446C157.291 86.1215 156.931 86.3984 156.931 86.3984C157.088 87.6064 156.898 88.8262 156.368 89.9458L156.407 89.9694ZM165.917 79.7043C165.526 80.333 164.893 80.811 164.137 81.0478C163.309 81.2889 162.419 81.2992 161.584 81.0773L161.63 81.1833C160.54 79.9314 159.305 78.7877 157.945 77.7714L156.767 76.8109C154.57 75.2319 153.118 72.9623 152.703 70.4586L152.657 70.4291C152.546 69.8308 152.57 69.2185 152.726 68.6284C152.882 68.0383 153.168 67.4824 153.567 66.9936C153.763 66.7344 153.982 66.4888 154.222 66.257L154.294 66.1863L154.392 66.0862V66.1981C155.125 67.9247 156.335 69.4568 157.906 70.653C159.651 72.0437 161.528 73.2694 163.535 74.3301C164.124 74.6444 164.695 74.9842 165.249 75.3495C165.863 75.9117 166.256 76.6387 166.369 77.4203C166.483 78.2019 166.31 78.9955 165.878 79.6807L165.917 79.7043ZM170.609 66.6224C170.324 67.1791 169.905 67.6716 169.382 68.064C168.859 68.4565 168.245 68.739 167.586 68.8911L167.769 69.0031C165.471 68.1137 163.199 67.1705 160.956 66.1745C158.633 65.3116 156.724 63.7381 155.563 61.7314L155.386 61.4545H155.328L155.256 61.3602L155.151 61.2011C154.754 60.5528 154.547 59.8243 154.549 59.0841C154.552 58.3439 154.763 57.6164 155.164 56.9701C156.604 58.6201 158.639 59.775 160.917 60.2347L162.762 60.7002C165.151 61.2895 167.533 61.8787 168.652 62.2618H168.698C169.595 62.851 170.269 63.676 170.616 64.6189C170.855 65.2638 170.839 65.9634 170.57 66.5988L170.609 66.6224ZM170.982 38.9737C170.568 39.2605 170.132 39.5158 169.673 39.7397C169.673 39.7397 169.104 40.2524 169.091 40.0226V39.9813C169.703 37.5149 169.387 34.9354 168.192 32.6483C166.998 30.3613 164.994 28.4966 162.494 27.3473C162.331 26.6796 162.331 25.9879 162.494 25.3202C162.646 24.7203 163.003 24.1783 163.515 23.7704C164.379 23.182 165.463 22.918 166.538 23.0338V22.9867C168.921 24.2152 170.844 26.0523 172.066 28.2656C173.289 30.4789 173.754 32.9688 173.404 35.4204C173.011 36.7993 172.147 38.0308 170.943 38.9501L170.982 38.9737ZM177.461 30.771C177.317 30.9242 177.461 30.9713 177.461 30.771V30.771ZM177.488 30.7533C177.557 29.2718 177.387 27.789 176.984 26.3514C175.771 23.1786 173.502 20.4193 170.485 18.4493C170.248 17.9086 170.164 17.3233 170.241 16.7461C170.318 16.169 170.553 15.618 170.924 15.1429C171.296 14.6678 171.794 14.2834 172.371 14.0243C172.949 13.7651 173.59 13.6394 174.235 13.6585C174.815 14.5188 175.518 15.2908 176.342 15.9743C177.075 16.6461 177.952 17.4593 178.96 18.5789C179.961 19.5192 180.727 20.6414 181.207 21.8701C181.687 23.0989 181.869 24.4058 181.742 25.7032C181.564 26.802 181.076 27.8413 180.324 28.7215C179.572 29.6016 178.582 30.2931 177.448 30.7297L177.488 30.7533ZM185.682 20.5C186.225 17.8777 182.926 14.6367 181.179 12.9219C180.904 12.6587 180.686 12.4328 180.524 12.2442C180.367 12.0557 180.04 11.7551 179.818 11.5312C178.862 10.5884 178.201 9.93429 178.24 8.79699H178.293C178.309 8.04285 178.646 7.32306 179.234 6.78588C179.822 6.2487 180.616 5.93505 181.454 5.90955C184.111 5.81527 185.191 7.44755 186.133 8.85592L186.572 9.50412L186.65 9.61019C187.802 11.2837 192.279 17.5418 185.636 20.4764L185.682 20.5Z" fill="#DCDDE2"/>
</svg>
