<svg width="53" height="53" viewBox="0 0 53 53" fill="none" xmlns="http://www.w3.org/2000/svg">
<path d="M10.3563 39.8875C12.5875 38.1813 15.0813 36.8359 17.8375 35.8516C20.5938 34.8672 23.4813 34.375 26.5 34.375C29.5187 34.375 32.4063 34.8672 35.1625 35.8516C37.9188 36.8359 40.4125 38.1813 42.6437 39.8875C44.175 38.0938 45.3672 36.0594 46.2203 33.7844C47.0734 31.5094 47.5 29.0812 47.5 26.5C47.5 20.6812 45.4547 15.7266 41.3641 11.6359C37.2734 7.54531 32.3188 5.5 26.5 5.5C20.6812 5.5 15.7266 7.54531 11.6359 11.6359C7.54531 15.7266 5.5 20.6812 5.5 26.5C5.5 29.0812 5.92656 31.5094 6.77969 33.7844C7.63281 36.0594 8.825 38.0938 10.3563 39.8875ZM26.5 29.125C23.9188 29.125 21.7422 28.2391 19.9703 26.4672C18.1984 24.6953 17.3125 22.5187 17.3125 19.9375C17.3125 17.3563 18.1984 15.1797 19.9703 13.4078C21.7422 11.6359 23.9188 10.75 26.5 10.75C29.0812 10.75 31.2578 11.6359 33.0297 13.4078C34.8016 15.1797 35.6875 17.3563 35.6875 19.9375C35.6875 22.5187 34.8016 24.6953 33.0297 26.4672C31.2578 28.2391 29.0812 29.125 26.5 29.125ZM26.5 52.75C22.8688 52.75 19.4562 52.0609 16.2625 50.6828C13.0687 49.3047 10.2906 47.4344 7.92812 45.0719C5.56562 42.7094 3.69531 39.9313 2.31719 36.7375C0.939062 33.5438 0.25 30.1312 0.25 26.5C0.25 22.8688 0.939062 19.4562 2.31719 16.2625C3.69531 13.0687 5.56562 10.2906 7.92812 7.92812C10.2906 5.56562 13.0687 3.69531 16.2625 2.31719C19.4562 0.939062 22.8688 0.25 26.5 0.25C30.1312 0.25 33.5438 0.939062 36.7375 2.31719C39.9313 3.69531 42.7094 5.56562 45.0719 7.92812C47.4344 10.2906 49.3047 13.0687 50.6828 16.2625C52.0609 19.4562 52.75 22.8688 52.75 26.5C52.75 30.1312 52.0609 33.5438 50.6828 36.7375C49.3047 39.9313 47.4344 42.7094 45.0719 45.0719C42.7094 47.4344 39.9313 49.3047 36.7375 50.6828C33.5438 52.0609 30.1312 52.75 26.5 52.75Z" fill="#FEF7FF"/>
</svg>
