<svg width="100%" height="100%" viewBox="0 0 92 92" fill="none" xmlns="http://www.w3.org/2000/svg">
<path d="M14.0004 91.7725C10.4174 91.7725 6.83481 90.4049 4.10083 87.6709C-1.36714 82.2029 -1.36675 73.3389 4.10083 67.8711C8.35395 63.618 14.6633 62.6752 19.8293 65.0391L30.3157 54.5531C26.1311 50.7062 21.7219 47.0811 17.1438 43.6279L23.0278 37.7441C26.6868 42.1475 30.4405 46.4305 34.3254 50.543L67.4493 17.4193C57.3233 9.52013 43.8426 6.9041 29.7905 9.10645L30.1079 13.2752L10.4731 17.2666L29.1069 0L29.4917 5.07812C46.4043 -2.14258 64.1797 -1.68164 76.629 7.37305L88.9458 3.21036L84.7524 15.6311C93.4653 28.0568 93.8165 45.5943 86.6875 62.2863L91.7715 62.6711L74.5047 81.299L78.4965 61.6643L82.6653 61.9814C84.868 47.9223 82.2418 34.4391 74.334 24.3103L41.1735 57.4646C45.2897 61.4373 49.5583 65.2117 54.0211 68.7381L48.1377 74.6217C44.8145 69.9041 41.1704 65.5084 37.2612 61.377L26.7202 71.918C29.0989 77.0883 28.161 83.4104 23.9008 87.6709C21.1665 90.4049 17.5838 91.7725 14.0004 91.7725ZM14.0004 86.4932C16.2336 86.4928 18.4676 85.6455 20.1713 83.9416C23.579 80.534 23.5788 75.0076 20.1713 71.6004C16.7639 68.1928 11.2436 68.1928 7.83618 71.6004C4.42856 75.0074 4.42837 80.534 7.83618 83.9414C9.5395 85.6455 11.7674 86.4932 14.0004 86.4932Z" fill="black"/>
</svg>
