<svg  viewBox="0 0 44 37" fill="currentColor" xmlns="http://www.w3.org/2000/svg">
<path d="M14.1967 6.94952C16.1316 6.72312 17.5047 4.98415 17.276 3.07076C17.0473 1.15648 15.2894 -0.20104 13.3544 0.02448C11.4195 0.263214 10.0518 1.98985 10.2805 3.90324C10.5201 5.8184 12.2617 7.17592 14.1967 6.94952ZM43.1863 23.3895C42.9993 23.297 28.6225 16.0751 28.6225 16.0751L24.9722 11.4247L24.7463 11.3727C24.248 10.9208 23.7443 10.9622 22.8367 11.4555V11.4661C22.8367 11.8361 22.6352 12.3814 22.8866 12.8245L25.682 16.2804L25.7373 16.3121L23.5138 21.4039L17.5674 19.9319L17.3133 17.822L22.2132 17.2371C22.432 17.2274 22.6616 17.1649 22.8694 17.0521C23.6817 16.631 23.9939 15.632 23.5673 14.8304C23.4153 14.5392 23.1759 14.2997 22.8806 14.1435C22.5853 13.9873 22.2482 13.9218 21.9137 13.9556L16.923 14.552L16.4756 10.8899C16.2369 8.98624 14.478 7.61815 12.554 7.84455C10.6254 8.08152 9.24132 9.82137 9.47003 11.7339L10.5101 20.2006C10.5739 20.7177 10.7537 21.2151 11.0367 21.6577C11.3197 22.1002 11.6991 22.4773 12.1483 22.7623L4.30958 23.6882L1.86549 29.675L2.14593 29.5834C3.15759 29.1188 4.26224 28.8761 5.38142 28.8725C6.49267 28.8754 7.58982 29.1142 8.59604 29.572C9.23043 29.8591 9.92744 30.0036 10.6036 30.0036C11.2852 30.0036 11.9713 29.8591 12.5957 29.5825C13.6074 29.1179 14.712 28.8752 15.8312 28.8716C16.9385 28.8735 18.0317 29.1123 19.0331 29.5711C19.6775 29.8583 20.3745 30.0027 21.0515 30.0027C21.7377 30.0027 22.4138 29.8583 23.0482 29.5816C24.0574 29.1183 25.1819 28.8707 26.2837 28.8707C27.3855 28.8707 28.4991 29.1174 29.4874 29.5702C29.727 29.6724 29.9875 29.7446 30.247 29.8169C34.2522 28.7756 41.3466 26.7715 43.2598 25.0739C43.8207 24.5823 43.9259 23.749 43.1863 23.3895ZM0.147461 37C1.03873 36.998 1.91899 36.8087 2.72768 36.445C3.52816 36.0741 4.43392 35.8592 5.38051 35.8592C6.32711 35.8592 7.22197 36.0741 8.03334 36.445C8.81295 36.7947 9.68694 37 10.6027 37C11.4921 36.9973 12.3704 36.8079 13.1775 36.445C14.0058 36.0606 14.9121 35.8605 15.8303 35.8592C16.7669 35.8592 17.6717 36.0741 18.4804 36.445C19.2609 36.7939 20.1349 37 21.0506 37C21.9414 36.9965 22.8211 36.8072 23.6299 36.445C24.4586 36.0605 25.3652 35.8604 26.2837 35.8592C27.2194 35.8592 28.1251 36.0741 28.9256 36.445C29.7152 36.7947 30.5892 37 31.504 37C32.4207 37 33.2938 36.7947 34.0743 36.445C34.9036 36.0634 35.8093 35.8634 36.7271 35.8592C37.6728 35.8592 38.5477 36.0741 39.3473 36.445C40.1278 36.7947 40.9881 37 41.8957 37V33.1829C40.9881 33.1829 40.1278 32.9794 39.3463 32.6288C38.5235 32.247 37.6227 32.0498 36.7108 32.0518C35.7751 32.0518 34.8775 32.257 34.0661 32.6288C33.2624 32.993 32.3864 33.1821 31.4995 33.1829C30.6095 33.1807 29.7306 32.9917 28.9229 32.6288C28.0978 32.248 27.1955 32.0508 26.2819 32.0518C25.3344 32.0518 24.4304 32.257 23.6281 32.6288C22.8199 32.9919 21.9403 33.181 21.0497 33.1829C20.1619 33.1825 19.2849 32.9934 18.4804 32.6288C17.6521 32.2478 16.7468 32.0507 15.8303 32.0518C14.9128 32.0503 14.0065 32.2474 13.1775 32.6288C12.3704 32.9914 11.492 33.1804 10.6027 33.1829C9.71483 33.1825 8.83784 32.9934 8.03334 32.6288C7.22197 32.257 6.32711 32.0518 5.38051 32.0518C4.43392 32.0518 3.52816 32.257 2.72768 32.6288C1.91892 32.9922 1.03866 33.1812 0.147461 33.1829V37Z" fill="currentColor"/>
</svg>
